<svg width="16" height="16" viewBox="0 0 16 16" fill="none" xmlns="http://www.w3.org/2000/svg">
<path d="M15.758 9.9345C14.69 14.224 10.3485 16.828 6.0655 15.7605C1.7815 14.7005 -0.828 10.3485 0.242 6.07C1.3075 1.7815 5.6515 -0.828 9.932 0.2395C14.2185 1.31 16.828 5.649 15.758 9.9375V9.9345ZM11.526 6.8595C11.6845 5.7995 10.8745 5.227 9.7655 4.8415L10.1255 3.406L9.2475 3.1845L8.899 4.591C8.6695 4.531 8.4305 4.479 8.1905 4.4245L8.54 3.005L7.6595 2.7865L7.3 4.229L6.74 4.0965L5.532 3.794L5.2975 4.7345C5.2975 4.7345 5.949 4.8825 5.933 4.8905C6.2905 4.982 6.355 5.213 6.345 5.401L5.3605 9.3485C5.311 9.4585 5.199 9.62 4.952 9.557C4.96 9.5695 4.3115 9.3985 4.3115 9.3985L3.8715 10.403L5.012 10.687L5.6315 10.8485L5.2695 12.31L6.15 12.526L6.512 11.0805C6.7515 11.1485 6.9805 11.208 7.2095 11.263L6.8715 12.6975L7.7515 12.919L8.1135 11.4585C9.608 11.742 10.7335 11.63 11.2075 10.276C11.5875 9.1845 11.186 8.5575 10.3975 8.146C10.965 8.0155 11.3975 7.638 11.517 6.8595H11.526ZM9.518 9.6745C9.25 10.768 7.414 10.1745 6.818 10.026L7.2995 8.094C7.896 8.2475 9.802 8.5415 9.518 9.6745ZM9.792 6.8465C9.544 7.841 8.018 7.3385 7.5205 7.213L7.9585 5.453C8.453 5.5725 10.049 5.8015 9.792 6.8435V6.8465Z" fill="black"/>
</svg>
