<svg width="16" height="16" viewBox="0 0 16 16" fill="none" xmlns="http://www.w3.org/2000/svg">
<path d="M8 0.5C3.85787 0.5 0.5 3.85787 0.5 8C0.5 12.1421 3.85787 15.5 8 15.5C12.1421 15.5 15.5 12.1421 15.5 8C15.5 3.85787 12.1421 0.5 8 0.5ZM12.5962 12.5962C11.4565 13.7325 9.93462 14.4037 8.32705 14.4792C6.71948 14.5547 5.1414 14.0289 3.90029 13.0044C2.65918 11.9799 1.84396 10.53 1.61346 8.93726C1.38297 7.34451 1.75372 5.723 2.65347 4.38868C3.55323 3.05436 4.91753 2.10281 6.48054 1.71945C8.04355 1.33608 9.6933 1.54837 11.1083 2.31494C12.5234 3.08151 13.6023 4.34744 14.135 5.86608C14.6676 7.38472 14.6158 9.04727 13.9896 10.5298C13.6632 11.3023 13.19 12.0041 12.5962 12.5962Z" fill="white"/>
<path d="M4.44747 7.53209L5.15459 8.23919L7.5 5.89381V11.75H8.5V5.89381L10.8454 8.23919L11.5525 7.53209L8 3.97959L4.44747 7.53209V7.53209Z" fill="white"/>
</svg>
